nColumns=28
nRows=41
DataType=double
version=3
OpenSimVersion=4.1
endheader
time	ground_force_1_vx	ground_force_1_vy	ground_force_1_vz	ground_force_1_px	ground_force_1_py	ground_force_1_pz	ground_force_1_mx	ground_force_1_my	ground_force_1_mz	ground_force_2_vx	ground_force_2_vy	ground_force_2_vz	ground_force_2_px	ground_force_2_py	ground_force_2_pz	ground_force_2_mx	ground_force_2_my	ground_force_2_mz	ground_force_3_vx	ground_force_3_vy	ground_force_3_vz	ground_force_3_px	ground_force_3_py	ground_force_3_pz	ground_force_3_mx	ground_force_3_my	ground_force_3_mz
1.28	0	0	0	0.00139927	0	0.00062742	0	0	0	-149.152	195.502	8.29447	-0.118956	0.006	-0.836497	0	-0.328021	0	0	0	0	0.00139927	0	0.00062742	0	0	0
1.29	-14.8188	34.0976	4.03831	-0.129447	0.006	-0.283633	0	0.326176	0	-480.97	671.407	79.3226	-0.126621	0.006	-0.837413	0	0.719106	0	0	0	0	0.00139927	0	0.00062742	0	0	0
1.3	-239.867	379.031	-19.627	-0.12839	0.006	-0.285582	0	0.568243	0	-394.372	594.657	69.9617	-0.120848	0.006	-0.835484	0	2.22463	0	0	0	0	0.00139927	0	0.00062742	0	0	0
1.31	-417.793	574.091	-81.8194	-0.12292	0.006	-0.283827	0	-0.180381	0	-172.799	500.074	11.1509	-0.151603	0.006	-0.824886	0	3.42787	0	0	0	0	0.00139927	0	0.00062742	0	0	0
1.32	-254.039	519.845	-75.8442	-0.140427	0.006	-0.285434	0	-1.02502	0	-90.5257	1142.73	57.9087	-0.244926	0.006	-0.812941	0	3.06491	0	0	0	0	0.00139927	0	0.00062742	0	0	0
1.33	-110.365	981.163	-96.1034	-0.216199	0.006	-0.296271	0	-4.48337	0	190.418	1947.45	147.606	-0.281989	0.006	-0.809607	0	2.89335	0	0	0	0	0.00139927	0	0.00062742	0	0	0
1.34	142.36	1692.24	-137.049	-0.25435	0.006	-0.30225	0	-7.55701	0	96.8904	1546.52	179.155	-0.271652	0.006	-0.813944	0	1.43007	0	0	0	0	0.00139927	0	0.00062742	0	0	0
1.35	113.809	1445.89	-162.798	-0.246741	0.006	-0.298904	0	-5.79122	0	-260.65	871.308	149.579	-0.211476	0.006	-0.825322	0	-0.256035	0	0	0	0	0.00139927	0	0.00062742	0	0	0
1.36	-206.302	851.884	-160.553	-0.194135	0.006	-0.288494	0	-1.44424	0	-358.197	627.929	118.97	-0.161584	0.006	-0.833056	0	1.52206	0	0	0	0	0.00139927	0	0.00062742	0	0	0
1.37	-300.528	551.365	-116.368	-0.144089	0.006	-0.283935	0	-1.02753	0	-300.919	585.072	104.809	-0.159011	0.006	-0.833425	0	2.55803	0	0	0	0	0.00139927	0	0.00062742	0	0	0
1.38	-277.889	457.919	-79.9666	-0.133398	0.006	-0.287612	0	-3.22249	0	-239.804	606.973	108.925	-0.168159	0.006	-0.833305	0	2.63254	0	0	0	0	0.00139927	0	0.00062742	0	0	0
1.39	-255.88	440.722	-65.5351	-0.135483	0.006	-0.290563	0	-5.17472	0	-192.3	690.34	117.404	-0.181077	0.006	-0.832465	0	3.12996	0	0	0	0	0.00139927	0	0.00062742	0	0	0
1.4	-235.223	467.299	-64.1163	-0.13844	0.006	-0.290691	0	-7.18067	0	-110.016	836.258	119.201	-0.199638	0.006	-0.829585	0	4.02336	0	0	0	0	0.00139927	0	0.00062742	0	0	0
1.41	-213.987	546.752	-77.2683	-0.143806	0.006	-0.28922	0	-8.48387	0	0.926434	994.536	125.413	-0.215769	0.006	-0.826882	0	3.8667	0	0	0	0	0.00139927	0	0.00062742	0	0	0
1.42	-170.924	673.162	-100.282	-0.15303	0.006	-0.287716	0	-8.8231	0	27.9858	1032.21	137.08	-0.215641	0.006	-0.827382	0	2.69189	0	0	0	0	0.00139927	0	0.00062742	0	0	0
1.43	-113.961	825.821	-127.167	-0.163482	0.006	-0.287321	0	-8.32097	0	-40.1524	933.829	131.69	-0.199973	0.006	-0.830079	0	2.51187	0	0	0	0	0.00139927	0	0.00062742	0	0	0
1.44	-70.942	939.595	-143.474	-0.169987	0.006	-0.287936	0	-7.75457	0	-95.6565	815.577	115.005	-0.181526	0.006	-0.832387	0	3.40581	0	0	0	0	0.00139927	0	0.00062742	0	0	0
1.45	-71.2919	940.281	-138.026	-0.168515	0.006	-0.288508	0	-7.80929	0	-115.661	733.444	105.583	-0.167966	0.006	-0.833919	0	3.53505	0	0	0	0	0.00139927	0	0.00062742	0	0	0
1.46	-104.189	847.51	-119.456	-0.160155	0.006	-0.288545	0	-8.32191	0	-123.436	678.234	105.749	-0.157582	0.006	-0.835504	0	2.2859	0	0	0	0	0.00139927	0	0.00062742	0	0	0
1.47	-130.995	739.711	-101.353	-0.150279	0.006	-0.288378	0	-8.39469	0	-123.753	645.69	105.907	-0.149744	0.006	-0.836622	0	0.884713	0	0	0	0	0.00139927	0	0.00062742	0	0	0
1.48	-140.705	658.918	-95.3989	-0.142514	0.006	-0.287538	0	-7.27225	0	-112.811	638.551	102.439	-0.146144	0.006	-0.836677	0	0.368897	0	0	0	0	0.00139927	0	0.00062742	0	0	0
1.49	-136.282	619.764	-101.128	-0.138753	0.006	-0.286123	0	-5.54712	0	-95.0963	658.62	98.5723	-0.147263	0.006	-0.835616	0	0.619416	0	0	0	0	0.00139927	0	0.00062742	0	0	0
1.5	-126.238	633.536	-113.6	-0.139707	0.006	-0.284943	0	-4.39804	0	-73.1218	694.005	95.9046	-0.151084	0.006	-0.833992	0	1.12146	0	0	0	0	0.00139927	0	0.00062742	0	0	0
1.51	-109.669	698.935	-126.435	-0.145297	0.006	-0.285067	0	-4.51569	0	-52.2452	729.476	96.4367	-0.155162	0.006	-0.832471	0	1.50624	0	0	0	0	0.00139927	0	0.00062742	0	0	0
1.52	-81.2416	794.623	-135.235	-0.153832	0.006	-0.286515	0	-5.78511	0	-39.3291	756.835	100.062	-0.158152	0.006	-0.831434	0	1.70873	0	0	0	0	0.00139927	0	0.00062742	0	0	0
1.53	-46.4324	887.934	-138.359	-0.162743	0.006	-0.288595	0	-7.7019	0	-34.6526	769.227	104.478	-0.159671	0.006	-0.830921	0	1.71233	0	0	0	0	0.00139927	0	0.00062742	0	0	0
1.54	-21.2672	936.79	-136.61	-0.168866	0.006	-0.290342	0	-9.13056	0	-34.6578	765.602	107.421	-0.159989	0.006	-0.83054	0	1.63718	0	0	0	0	0.00139927	0	0.00062742	0	0	0
1.55	-22.272	922.172	-135.803	-0.169642	0.006	-0.290681	0	-9.08704	0	-36.7229	753.874	107.175	-0.15974	0.006	-0.830168	0	1.70842	0	0	0	0	0.00139927	0	0.00062742	0	0	0
1.56	-38.566	876.407	-136.711	-0.16651	0.006	-0.29005	0	-8.22378	0	-39.6165	746.169	104.963	-0.159364	0.006	-0.830024	0	2.0628	0	0	0	0	0.00139927	0	0.00062742	0	0	0
1.57	-49.4138	842.935	-135.887	-0.162899	0.006	-0.289598	0	-7.74832	0	-39.7994	748.767	105.683	-0.158878	0.006	-0.830207	0	2.38823	0	0	0	0	0.00139927	0	0.00062742	0	0	0
1.58	-51.9264	836.694	-133.155	-0.16011	0.006	-0.289656	0	-7.9724	0	-36.3437	759.371	110.596	-0.15802	0.006	-0.830624	0	2.45989	0	0	0	0	0.00139927	0	0.00062742	0	0	0
1.59	-51.3767	840.162	-130.9	-0.157543	0.006	-0.289821	0	-8.3595	0	-34.0243	768.139	116.031	-0.15653	0.006	-0.831021	0	2.35581	0	0	0	0	0.00139927	0	0.00062742	0	0	0
1.6	-51.2949	832.559	-129.704	-0.154719	0.006	-0.289829	0	-8.48179	0	-33.98	763.882	119.325	-0.154028	0.006	-0.831492	0	2.17884	0	0	0	0	0.00139927	0	0.00062742	0	0	0
1.61	-53.4934	808.737	-129.28	-0.151725	0.006	-0.289661	0	-8.30587	0	-35.4353	744.123	121.032	-0.150701	0.006	-0.832115	0	1.85997	0	0	0	0	0.00139927	0	0.00062742	0	0	0
1.62	-56.1865	774.657	-128.258	-0.148926	0.006	-0.289474	0	-8.1077	0	-39.0346	716.502	122.625	-0.147228	0.006	-0.832804	0	1.45785	0	0	0	0	0.00139927	0	0.00062742	0	0	0
1.63	-57.7297	739.948	-126.215	-0.146904	0.006	-0.289581	0	-8.11112	0	-41.6873	689.184	123.565	-0.144546	0.006	-0.833157	0	1.22574	0	0	0	0	0.00139927	0	0.00062742	0	0	0
1.64	-58.1768	710.641	-123.921	-0.145892	0.006	-0.290046	0	-8.35004	0	-41.3919	667.207	123.541	-0.143517	0.006	-0.832934	0	1.22457	0	0	0	0	0.00139927	0	0.00062742	0	0	0
1.65	-57.3152	687.817	-121.591	-0.145884	0.006	-0.290757	0	-8.77673	0	-38.1633	651.851	122.611	-0.144366	0.006	-0.832161	0	1.38881	0	0	0	0	0.00139927	0	0.00062742	0	0	0
1.66	-54.541	669.4	-119.192	-0.146781	0.006	-0.291602	0	-9.29002	0	-32.4462	642.377	121.255	-0.146975	0.006	-0.830921	0	1.52451	0	0	0	0	0.00139927	0	0.00062742	0	0	0
1.67	-50.4354	653.881	-117.636	-0.148411	0.006	-0.292451	0	-9.6523	0	-25.288	636.555	120.668	-0.150765	0.006	-0.82949	0	1.35645	0	0	0	0	0.00139927	0	0.00062742	0	0	0
1.68	-45.6242	639.436	-117.56	-0.15045	0.006	-0.293334	0	-9.64778	0	-16.9643	629.971	121.18	-0.155416	0.006	-0.827896	0	0.876884	0	0	0	0	0.00139927	0	0.00062742	0	0	0
